<svg id="svg" version="1.1" xmlns="http://www.w3.org/2000/svg" xmlns:xlink="http://www.w3.org/1999/xlink" width="400" height="400" viewBox="0, 0, 400,400"><g id="svgg"><path id="path0" d="M355.083 66.988 C 354.469 67.308,353.344 67.687,352.583 67.830 C 351.822 67.972,351.200 68.249,351.200 68.445 C 351.200 68.640,350.795 68.801,350.300 68.802 C 349.805 68.804,348.884 69.074,348.254 69.402 C 347.624 69.731,346.814 70.006,346.454 70.014 C 346.094 70.021,345.080 70.375,344.200 70.800 C 343.320 71.225,342.195 71.579,341.700 71.586 C 341.205 71.594,340.800 71.764,340.800 71.965 C 340.800 72.166,340.081 72.451,339.202 72.600 C 338.323 72.748,337.515 73.014,337.407 73.189 C 337.298 73.365,336.555 73.632,335.755 73.782 C 334.956 73.932,334.009 74.215,333.651 74.411 C 333.293 74.607,329.673 75.869,325.606 77.216 C 321.540 78.563,317.760 79.909,317.206 80.206 C 316.653 80.503,314.220 81.397,311.800 82.193 C 309.380 82.988,307.124 83.788,306.787 83.969 C 306.450 84.150,305.597 84.425,304.891 84.580 C 304.186 84.735,303.506 85.028,303.381 85.231 C 303.255 85.434,302.758 85.601,302.276 85.602 C 301.794 85.604,300.884 85.874,300.254 86.202 C 299.624 86.531,298.931 86.800,298.715 86.800 C 298.498 86.800,297.754 87.056,297.060 87.369 C 296.367 87.682,293.820 88.588,291.400 89.382 C 288.980 90.176,286.730 90.937,286.400 91.072 C 285.168 91.577,279.371 93.650,278.600 93.861 C 278.160 93.981,277.233 94.332,276.540 94.640 C 275.846 94.948,275.087 95.200,274.853 95.200 C 274.459 95.200,272.271 96.064,270.749 96.821 C 270.391 97.000,269.444 97.268,268.645 97.418 C 267.845 97.568,267.102 97.835,266.993 98.011 C 266.885 98.186,266.077 98.452,265.198 98.600 C 264.319 98.749,263.600 99.019,263.600 99.200 C 263.600 99.381,262.880 99.651,262.000 99.800 C 261.120 99.949,260.400 100.214,260.400 100.390 C 260.400 100.565,259.590 100.831,258.600 100.979 C 257.610 101.128,256.800 101.407,256.800 101.600 C 256.800 101.793,255.990 102.072,255.000 102.221 C 254.010 102.369,253.200 102.635,253.200 102.810 C 253.200 102.986,252.480 103.251,251.600 103.400 C 250.720 103.549,250.000 103.823,250.000 104.011 C 250.000 104.198,249.190 104.472,248.200 104.621 C 247.210 104.769,246.400 105.035,246.400 105.210 C 246.400 105.386,245.681 105.651,244.802 105.800 C 243.923 105.948,243.103 106.234,242.978 106.435 C 242.854 106.636,242.448 106.801,242.076 106.802 C 241.704 106.804,240.897 107.067,240.283 107.388 C 239.669 107.708,238.544 108.087,237.783 108.230 C 237.022 108.372,236.400 108.629,236.400 108.799 C 236.400 108.970,235.590 109.231,234.600 109.379 C 233.610 109.528,232.800 109.798,232.800 109.979 C 232.800 110.161,231.990 110.431,231.000 110.579 C 230.010 110.728,229.200 111.002,229.200 111.189 C 229.200 111.377,228.480 111.651,227.600 111.800 C 226.720 111.949,226.000 112.223,226.000 112.411 C 226.000 112.598,225.190 112.872,224.200 113.021 C 223.210 113.169,222.400 113.435,222.400 113.610 C 222.400 113.786,221.681 114.051,220.802 114.200 C 219.923 114.348,219.103 114.634,218.978 114.835 C 218.854 115.036,218.448 115.201,218.076 115.202 C 217.704 115.204,216.897 115.467,216.283 115.788 C 215.669 116.108,214.544 116.487,213.783 116.630 C 213.022 116.772,212.400 117.029,212.400 117.199 C 212.400 117.370,211.590 117.631,210.600 117.779 C 209.610 117.928,208.800 118.202,208.800 118.389 C 208.800 118.577,208.081 118.851,207.202 119.000 C 206.323 119.148,205.512 119.418,205.400 119.600 C 205.288 119.782,204.477 120.052,203.598 120.200 C 202.719 120.349,202.000 120.623,202.000 120.811 C 202.000 120.998,201.190 121.272,200.200 121.421 C 199.210 121.569,198.400 121.830,198.400 122.001 C 198.400 122.171,197.778 122.428,197.017 122.570 C 196.256 122.713,195.131 123.092,194.517 123.412 C 193.903 123.733,193.096 123.996,192.724 123.998 C 192.352 123.999,191.946 124.164,191.822 124.365 C 191.697 124.566,190.877 124.852,189.998 125.000 C 189.119 125.149,188.400 125.414,188.400 125.590 C 188.400 125.765,187.590 126.031,186.600 126.179 C 185.610 126.328,184.800 126.598,184.800 126.780 C 184.800 126.962,184.178 127.228,183.417 127.370 C 182.656 127.513,181.531 127.892,180.917 128.212 C 180.303 128.533,179.395 128.796,178.900 128.798 C 178.405 128.799,178.000 128.969,178.000 129.175 C 178.000 129.382,177.190 129.672,176.200 129.821 C 175.210 129.969,174.400 130.250,174.400 130.445 C 174.400 130.640,174.085 130.801,173.700 130.802 C 173.315 130.804,172.497 131.067,171.883 131.388 C 171.269 131.708,170.144 132.087,169.383 132.230 C 168.622 132.372,168.000 132.629,168.000 132.799 C 168.000 132.970,167.190 133.231,166.200 133.379 C 165.210 133.528,164.400 133.798,164.400 133.979 C 164.400 134.161,163.590 134.431,162.600 134.579 C 161.610 134.728,160.800 134.998,160.800 135.180 C 160.800 135.362,160.178 135.628,159.417 135.770 C 158.656 135.913,157.531 136.292,156.917 136.612 C 156.303 136.933,155.395 137.196,154.900 137.198 C 154.405 137.199,154.000 137.364,154.000 137.565 C 154.000 137.766,153.281 138.051,152.402 138.200 C 151.523 138.348,150.703 138.634,150.578 138.835 C 150.454 139.036,150.048 139.201,149.676 139.202 C 149.304 139.204,148.497 139.467,147.883 139.788 C 147.269 140.108,146.144 140.487,145.383 140.630 C 144.622 140.772,144.000 141.029,144.000 141.199 C 144.000 141.370,143.190 141.631,142.200 141.779 L 140.400 142.049 140.400 146.425 C 140.400 148.831,140.552 150.800,140.738 150.800 C 140.924 150.800,141.192 153.635,141.333 157.100 C 142.033 174.264,142.082 174.855,142.762 174.578 C 143.730 174.185,153.028 170.882,156.200 169.805 C 160.337 168.400,166.326 166.301,172.200 164.197 C 179.204 161.689,179.515 161.603,180.737 161.847 C 181.330 161.965,182.331 161.781,183.000 161.432 C 183.660 161.087,184.504 160.804,184.876 160.802 C 185.248 160.801,185.651 160.640,185.772 160.445 C 185.893 160.250,186.645 159.968,187.445 159.818 C 188.244 159.668,189.191 159.392,189.549 159.205 C 189.907 159.017,191.370 158.475,192.800 158.000 C 194.230 157.525,195.693 156.983,196.051 156.795 C 196.409 156.608,197.354 156.332,198.151 156.183 C 198.948 156.033,199.600 155.751,199.600 155.555 C 199.600 155.360,200.005 155.199,200.500 155.198 C 200.995 155.196,201.883 154.943,202.473 154.635 C 203.063 154.327,204.110 153.951,204.800 153.800 C 205.490 153.649,206.537 153.273,207.127 152.965 C 207.717 152.657,208.504 152.404,208.876 152.402 C 209.248 152.401,209.651 152.240,209.772 152.045 C 209.893 151.850,210.645 151.568,211.445 151.418 C 212.244 151.268,213.191 150.992,213.549 150.805 C 213.907 150.617,215.370 150.075,216.800 149.600 C 218.230 149.125,219.693 148.583,220.051 148.395 C 220.409 148.208,221.354 147.932,222.151 147.783 C 222.948 147.633,223.600 147.351,223.600 147.155 C 223.600 146.960,224.005 146.799,224.500 146.798 C 224.995 146.796,225.903 146.533,226.517 146.212 C 227.131 145.892,228.256 145.513,229.017 145.370 C 229.778 145.228,230.400 144.967,230.400 144.791 C 230.400 144.614,231.119 144.349,231.998 144.200 C 232.877 144.052,233.688 143.782,233.800 143.600 C 233.912 143.418,234.722 143.148,235.600 143.000 C 236.478 142.852,237.297 142.566,237.422 142.365 C 237.546 142.164,237.952 141.999,238.324 141.998 C 238.696 141.996,239.503 141.733,240.117 141.412 C 240.731 141.092,241.856 140.713,242.617 140.570 C 243.378 140.428,244.000 140.171,244.000 140.001 C 244.000 139.830,244.810 139.569,245.800 139.421 C 246.790 139.272,247.600 138.982,247.600 138.775 C 247.600 138.569,248.005 138.394,248.500 138.386 C 248.995 138.379,250.120 138.025,251.000 137.600 C 251.880 137.175,253.005 136.821,253.500 136.814 C 253.995 136.806,254.400 136.640,254.400 136.445 C 254.400 136.249,255.075 135.963,255.900 135.809 C 256.725 135.655,257.580 135.399,257.800 135.242 C 258.020 135.084,259.550 134.533,261.200 134.017 C 262.850 133.501,264.380 132.942,264.600 132.775 C 264.820 132.608,265.675 132.345,266.500 132.191 C 267.325 132.037,268.000 131.751,268.000 131.555 C 268.000 131.360,268.405 131.199,268.900 131.198 C 269.395 131.196,270.316 130.926,270.946 130.598 C 271.576 130.269,272.386 129.994,272.746 129.986 C 273.106 129.979,274.120 129.625,275.000 129.200 C 275.880 128.775,276.904 128.421,277.276 128.414 C 277.648 128.406,278.051 128.240,278.172 128.045 C 278.293 127.850,279.045 127.568,279.845 127.418 C 280.644 127.268,281.591 126.992,281.949 126.805 C 282.307 126.617,283.770 126.075,285.200 125.600 C 286.630 125.125,288.076 124.593,288.413 124.419 C 288.750 124.244,289.603 123.975,290.309 123.820 C 291.014 123.665,291.694 123.372,291.819 123.169 C 291.945 122.966,292.442 122.799,292.924 122.798 C 293.406 122.796,294.303 122.533,294.917 122.212 C 295.531 121.892,296.656 121.513,297.417 121.370 C 298.178 121.228,298.800 120.971,298.800 120.800 C 298.800 120.629,299.452 120.367,300.249 120.217 C 301.046 120.068,301.991 119.787,302.349 119.594 C 302.707 119.401,305.070 118.558,307.600 117.721 C 310.130 116.885,312.260 116.065,312.333 115.900 C 312.407 115.735,312.857 115.599,313.333 115.598 C 313.810 115.596,314.658 115.356,315.218 115.064 C 315.777 114.772,316.812 114.418,317.518 114.276 L 318.800 114.020 318.800 127.110 C 318.801 134.310,318.920 151.945,319.066 166.300 C 319.306 189.938,319.272 192.400,318.699 192.400 C 318.351 192.400,318.007 192.535,317.933 192.700 C 317.860 192.865,316.810 193.504,315.600 194.121 C 311.916 195.998,309.411 197.386,309.196 197.668 C 309.084 197.816,308.499 198.060,307.896 198.212 C 307.293 198.363,306.800 198.633,306.800 198.812 C 306.800 198.990,306.260 199.255,305.600 199.400 C 304.940 199.545,304.400 199.810,304.400 199.988 C 304.400 200.167,303.907 200.437,303.304 200.588 C 302.701 200.740,302.116 200.984,302.004 201.132 C 301.892 201.279,300.360 202.120,298.600 203.000 C 296.840 203.880,295.308 204.721,295.196 204.868 C 295.084 205.016,294.499 205.260,293.896 205.412 C 293.293 205.563,292.800 205.833,292.800 206.012 C 292.800 206.190,292.260 206.455,291.600 206.600 C 290.940 206.745,290.400 207.010,290.400 207.188 C 290.400 207.367,289.907 207.637,289.304 207.788 C 288.701 207.940,288.116 208.184,288.004 208.332 C 287.775 208.633,285.902 209.637,279.200 213.054 C 276.670 214.344,274.510 215.510,274.400 215.646 C 274.290 215.781,273.750 216.031,273.200 216.200 C 272.650 216.369,272.110 216.619,272.000 216.754 C 271.890 216.889,270.360 217.720,268.600 218.600 C 266.840 219.480,265.308 220.321,265.196 220.468 C 265.084 220.616,264.499 220.860,263.896 221.012 C 263.293 221.163,262.800 221.428,262.800 221.600 C 262.800 221.772,262.307 222.037,261.704 222.188 C 261.101 222.340,260.516 222.584,260.404 222.732 C 260.292 222.879,258.760 223.720,257.000 224.600 C 255.240 225.480,253.710 226.292,253.600 226.405 C 253.490 226.518,252.365 227.109,251.100 227.718 C 249.835 228.327,248.800 229.046,248.800 229.316 C 248.800 229.985,248.391 230.221,236.500 236.403 C 232.691 238.383,232.777 238.104,234.404 243.216 C 235.066 245.297,236.168 248.800,236.853 251.000 C 237.538 253.200,238.545 256.395,239.092 258.100 C 239.638 259.805,239.980 261.476,239.850 261.814 C 239.531 262.645,240.373 266.430,241.021 267.079 C 241.625 267.682,242.400 267.768,242.400 267.232 C 242.400 267.029,242.940 266.745,243.600 266.600 C 244.260 266.455,244.800 266.185,244.800 266.000 C 244.800 265.815,245.340 265.545,246.000 265.400 C 246.660 265.255,247.200 264.990,247.200 264.812 C 247.200 264.633,247.693 264.363,248.296 264.212 C 248.899 264.060,249.484 263.816,249.596 263.668 C 249.795 263.407,250.916 262.775,254.200 261.073 C 255.080 260.617,255.892 260.113,256.004 259.953 C 256.116 259.794,256.701 259.540,257.304 259.388 C 257.907 259.237,258.400 258.967,258.400 258.788 C 258.400 258.610,258.940 258.345,259.600 258.200 C 260.260 258.055,260.800 257.785,260.800 257.600 C 260.800 257.415,261.340 257.145,262.000 257.000 C 262.660 256.855,263.200 256.590,263.200 256.412 C 263.200 256.233,263.693 255.963,264.296 255.812 C 264.899 255.660,265.484 255.416,265.596 255.268 C 265.708 255.121,267.240 254.280,269.000 253.400 C 270.760 252.520,272.292 251.679,272.404 251.532 C 272.516 251.384,273.101 251.140,273.704 250.988 C 274.307 250.837,274.800 250.567,274.800 250.388 C 274.800 250.210,275.340 249.945,276.000 249.800 C 276.660 249.655,277.200 249.390,277.200 249.212 C 277.200 249.033,277.693 248.763,278.296 248.612 C 278.899 248.460,279.484 248.216,279.597 248.068 C 279.785 247.823,281.515 246.840,284.600 245.227 C 285.260 244.882,285.891 244.479,286.004 244.332 C 286.116 244.184,286.701 243.940,287.304 243.788 C 287.907 243.637,288.400 243.367,288.400 243.188 C 288.400 243.010,288.940 242.745,289.600 242.600 C 290.260 242.455,290.800 242.185,290.800 242.000 C 290.800 241.815,291.340 241.545,292.000 241.400 C 292.660 241.255,293.200 240.985,293.200 240.800 C 293.200 240.615,293.740 240.345,294.400 240.200 C 295.060 240.055,295.604 239.816,295.608 239.668 C 295.613 239.521,296.599 238.950,297.800 238.400 C 299.001 237.850,299.987 237.279,299.992 237.132 C 299.996 236.984,300.540 236.745,301.200 236.600 C 301.860 236.455,302.400 236.185,302.400 236.000 C 302.400 235.815,302.940 235.545,303.600 235.400 C 304.260 235.255,304.800 234.990,304.800 234.812 C 304.800 234.633,305.293 234.363,305.896 234.212 C 306.499 234.060,307.084 233.816,307.196 233.668 C 307.425 233.367,309.298 232.363,316.000 228.946 C 318.530 227.656,320.690 226.490,320.800 226.354 C 320.910 226.219,321.450 225.969,322.000 225.800 C 322.550 225.631,323.090 225.381,323.200 225.246 C 323.310 225.111,324.840 224.280,326.600 223.400 C 328.360 222.520,329.892 221.679,330.004 221.532 C 330.116 221.384,330.701 221.140,331.304 220.988 C 331.907 220.837,332.400 220.567,332.400 220.388 C 332.400 220.210,332.940 219.945,333.600 219.800 C 334.260 219.655,334.800 219.385,334.800 219.200 C 334.800 219.015,335.340 218.745,336.000 218.600 C 336.660 218.455,337.204 218.216,337.208 218.068 C 337.213 217.921,338.199 217.350,339.400 216.800 C 340.601 216.250,341.587 215.673,341.592 215.518 C 341.596 215.363,342.232 215.118,343.004 214.973 C 343.777 214.828,344.498 214.565,344.607 214.389 C 344.715 214.214,345.522 213.948,346.400 213.800 C 347.278 213.652,348.088 213.382,348.200 213.200 C 348.312 213.018,349.122 212.748,350.000 212.600 C 350.878 212.452,351.688 212.182,351.800 212.000 C 351.912 211.818,352.723 211.548,353.602 211.400 C 354.481 211.251,355.200 210.986,355.200 210.810 C 355.200 210.635,356.010 210.369,357.000 210.221 C 357.990 210.072,358.800 209.782,358.800 209.575 C 358.800 209.369,359.070 209.200,359.400 209.200 C 359.843 209.200,360.000 208.737,360.000 207.432 C 360.000 205.792,360.087 205.644,361.200 205.400 C 361.860 205.255,362.400 204.971,362.400 204.768 C 362.400 204.566,362.655 204.400,362.967 204.400 C 363.934 204.400,363.807 199.849,362.822 199.201 C 362.653 199.091,362.383 198.280,362.222 197.400 C 362.060 196.520,361.788 195.620,361.616 195.400 C 361.445 195.180,361.175 194.280,361.016 193.400 C 360.858 192.520,360.561 191.598,360.357 191.350 C 360.143 191.091,359.811 177.352,359.575 158.950 C 359.349 141.378,359.017 115.570,358.838 101.600 C 358.658 87.630,358.486 73.995,358.455 71.300 L 358.400 66.400 357.300 66.402 C 356.695 66.404,355.697 66.667,355.083 66.988 " stroke="none" fill="#0cb35b" fill-rule="evenodd"></path><path id="path1" d="M137.679 152.700 C 135.193 155.005,132.656 157.206,132.085 157.553 C 131.547 157.880,129.303 159.806,126.090 162.700 C 125.051 163.635,124.079 164.400,123.929 164.400 C 123.258 164.400,122.400 165.762,122.400 166.829 C 122.400 167.550,122.191 168.000,121.856 168.000 C 121.557 168.000,120.661 168.585,119.867 169.300 C 117.670 171.275,115.851 172.814,115.346 173.122 C 114.586 173.587,111.564 176.122,110.128 177.500 C 109.383 178.215,108.625 178.800,108.443 178.800 C 108.261 178.800,107.461 179.385,106.667 180.100 C 104.470 182.075,102.651 183.614,102.146 183.922 C 101.386 184.387,98.364 186.922,96.928 188.300 C 96.183 189.015,95.425 189.600,95.243 189.600 C 95.061 189.600,94.264 190.185,93.471 190.900 C 92.679 191.615,91.798 192.383,91.515 192.606 C 87.894 195.460,85.345 197.561,83.640 199.098 C 82.848 199.812,82.090 200.397,81.956 200.398 C 81.822 200.399,81.064 200.985,80.271 201.700 C 79.479 202.415,78.598 203.183,78.315 203.406 C 77.610 203.962,74.045 206.820,72.835 207.800 C 72.292 208.240,71.097 209.275,70.179 210.100 C 69.261 210.925,68.382 211.600,68.224 211.600 C 68.067 211.600,67.427 212.095,66.803 212.700 C 66.178 213.305,65.157 214.197,64.533 214.683 C 63.910 215.168,62.860 216.020,62.200 216.575 C 61.540 217.130,60.818 217.723,60.596 217.892 C 59.487 218.737,56.130 221.473,55.556 222.000 C 55.197 222.330,54.204 223.165,53.351 223.856 C 52.498 224.547,51.170 225.627,50.400 226.256 C 49.630 226.885,48.765 227.579,48.478 227.800 C 48.191 228.020,47.420 228.695,46.764 229.300 C 46.109 229.905,45.444 230.402,45.286 230.405 C 45.129 230.408,44.255 231.083,43.344 231.905 C 42.434 232.727,40.994 233.965,40.144 234.656 C 39.295 235.347,37.970 236.427,37.200 237.056 C 36.430 237.685,35.565 238.379,35.278 238.600 C 34.991 238.820,34.220 239.495,33.564 240.100 C 32.909 240.705,32.244 241.202,32.086 241.205 C 31.929 241.208,31.055 241.883,30.144 242.705 C 27.789 244.832,25.224 246.937,24.457 247.374 C 24.096 247.580,23.581 247.940,23.314 248.174 C 22.008 249.318,21.606 249.600,21.279 249.600 C 21.084 249.600,20.598 249.960,20.200 250.400 C 19.802 250.840,19.249 251.200,18.971 251.200 C 18.694 251.200,18.407 251.344,18.333 251.519 C 18.260 251.694,16.760 252.819,15.000 254.018 C 13.240 255.217,11.581 256.378,11.314 256.599 C 11.047 256.819,10.585 257.201,10.289 257.446 C 9.992 257.691,9.356 258.102,8.875 258.360 C 8.349 258.641,8.000 259.210,8.000 259.786 C 8.000 260.312,7.730 261.013,7.400 261.343 C 6.436 262.306,6.651 262.735,9.517 265.573 C 11.012 267.053,12.646 268.789,13.150 269.432 C 13.653 270.074,14.736 271.320,15.555 272.200 C 16.374 273.080,17.164 274.115,17.310 274.500 C 17.456 274.885,17.741 275.200,17.944 275.200 C 18.147 275.200,18.426 275.650,18.564 276.200 C 18.702 276.750,18.992 277.200,19.208 277.200 C 19.423 277.200,19.600 277.476,19.600 277.813 C 19.600 278.149,19.854 278.522,20.164 278.641 C 20.474 278.761,20.837 279.295,20.972 279.829 C 21.106 280.363,21.392 280.800,21.608 280.800 C 21.823 280.800,22.000 281.076,22.000 281.413 C 22.000 281.749,22.254 282.122,22.564 282.241 C 22.874 282.361,23.237 282.895,23.372 283.429 C 23.506 283.963,23.792 284.400,24.008 284.400 C 24.223 284.400,24.400 284.676,24.400 285.013 C 24.400 285.349,24.654 285.722,24.964 285.841 C 25.274 285.961,25.637 286.495,25.772 287.029 C 25.906 287.563,26.192 288.000,26.408 288.000 C 26.623 288.000,26.800 288.276,26.800 288.613 C 26.800 288.949,27.054 289.322,27.364 289.441 C 27.674 289.561,28.037 290.095,28.172 290.629 C 28.306 291.163,28.592 291.600,28.808 291.600 C 29.023 291.600,29.200 291.876,29.200 292.213 C 29.200 292.549,29.454 292.922,29.764 293.041 C 30.074 293.161,30.437 293.695,30.572 294.229 C 30.706 294.763,30.992 295.200,31.208 295.200 C 31.423 295.200,31.600 295.476,31.600 295.813 C 31.600 296.149,31.854 296.522,32.164 296.641 C 32.474 296.761,32.837 297.295,32.972 297.829 C 33.106 298.363,33.392 298.800,33.608 298.800 C 33.823 298.800,34.000 299.076,34.000 299.413 C 34.000 299.749,34.270 300.129,34.600 300.255 C 34.930 300.382,35.200 300.709,35.200 300.982 C 35.200 301.418,35.577 301.967,37.193 303.883 C 37.417 304.149,37.600 304.526,37.600 304.722 C 37.600 305.035,38.029 305.629,39.593 307.483 C 39.817 307.749,40.000 308.126,40.000 308.322 C 40.000 308.635,40.429 309.229,41.993 311.083 C 42.217 311.349,42.400 311.726,42.400 311.922 C 42.400 312.235,42.829 312.829,44.393 314.683 C 44.617 314.949,44.800 315.341,44.800 315.555 C 44.800 315.768,45.025 316.186,45.300 316.482 C 46.208 317.461,47.600 319.561,47.600 319.950 C 47.600 320.161,47.735 320.393,47.900 320.467 C 48.338 320.661,50.000 323.102,50.000 323.550 C 50.000 323.761,50.135 323.993,50.300 324.067 C 50.738 324.261,52.400 326.702,52.400 327.150 C 52.400 327.361,52.535 327.593,52.700 327.667 C 53.138 327.861,54.800 330.302,54.800 330.750 C 54.800 330.961,54.935 331.193,55.100 331.267 C 55.538 331.461,57.200 333.902,57.200 334.350 C 57.200 334.561,57.335 334.793,57.500 334.867 C 57.938 335.061,59.600 337.502,59.600 337.950 C 59.600 338.161,59.743 338.393,59.918 338.467 C 60.302 338.628,66.042 347.309,66.882 349.000 C 67.640 350.525,68.543 352.511,69.519 354.800 C 71.941 360.479,72.129 360.800,73.038 360.800 C 73.530 360.800,74.008 360.577,74.099 360.304 C 74.218 359.947,74.460 360.003,74.961 360.504 C 75.830 361.373,76.075 361.372,77.101 360.500 C 77.555 360.115,78.257 359.573,78.663 359.296 C 80.713 357.894,85.059 354.786,85.483 354.419 C 85.749 354.188,86.159 354.000,86.396 354.000 C 86.632 354.000,86.929 353.730,87.055 353.400 C 87.182 353.070,87.538 352.800,87.847 352.800 C 88.155 352.800,88.716 352.440,89.093 352.000 C 89.470 351.560,89.993 351.200,90.256 351.200 C 90.518 351.200,90.793 351.065,90.867 350.900 C 91.069 350.445,93.510 348.800,93.984 348.800 C 94.213 348.800,94.400 348.620,94.400 348.400 C 94.400 348.180,94.657 348.000,94.971 348.000 C 95.286 348.000,95.781 347.773,96.071 347.495 C 96.362 347.218,97.126 346.723,97.769 346.395 C 100.038 345.240,100.400 345.007,100.400 344.705 C 100.400 344.537,100.657 344.400,100.971 344.400 C 101.286 344.400,101.783 344.175,102.078 343.900 C 102.372 343.625,103.316 343.040,104.177 342.600 C 105.037 342.160,105.938 341.620,106.178 341.400 C 106.418 341.180,107.511 340.550,108.607 340.000 C 109.703 339.450,110.660 338.865,110.733 338.700 C 110.807 338.535,111.016 338.400,111.198 338.400 C 111.381 338.400,112.487 337.770,113.656 337.000 C 114.825 336.230,116.011 335.600,116.291 335.600 C 116.571 335.600,116.800 335.441,116.800 335.247 C 116.800 335.052,117.115 334.793,117.500 334.671 C 118.274 334.426,120.486 333.141,120.800 332.754 C 120.910 332.619,121.405 332.381,121.900 332.227 C 122.395 332.072,122.800 331.778,122.800 331.573 C 122.800 331.368,122.984 331.200,123.208 331.200 C 123.433 331.200,126.721 329.345,130.516 327.078 C 134.311 324.811,137.682 322.824,138.008 322.662 C 138.334 322.501,138.960 322.147,139.400 321.876 C 139.840 321.605,140.927 320.937,141.815 320.392 C 142.703 319.846,143.783 319.175,144.215 318.899 C 144.647 318.624,145.360 318.237,145.800 318.039 C 146.240 317.842,147.283 317.212,148.118 316.640 C 148.953 316.068,149.704 315.600,149.787 315.600 C 149.870 315.600,153.095 313.710,156.953 311.400 C 160.811 309.090,164.155 307.200,164.384 307.200 C 164.613 307.200,164.800 307.023,164.800 306.808 C 164.800 306.592,165.250 306.302,165.800 306.164 C 166.350 306.026,166.800 305.794,166.800 305.648 C 166.800 305.503,167.652 304.937,168.693 304.392 C 169.734 303.846,170.827 303.175,171.121 302.900 C 171.416 302.625,171.914 302.400,172.229 302.400 C 172.543 302.400,172.800 302.263,172.800 302.095 C 172.800 301.788,173.672 301.256,175.700 300.328 C 176.305 300.051,176.800 299.684,176.800 299.512 C 176.800 299.341,177.057 299.200,177.371 299.200 C 177.686 299.200,178.181 298.973,178.471 298.695 C 178.762 298.418,179.526 297.923,180.169 297.595 C 182.438 296.440,182.800 296.207,182.800 295.905 C 182.800 295.737,183.057 295.600,183.371 295.600 C 183.686 295.600,184.183 295.375,184.478 295.100 C 184.772 294.825,185.716 294.240,186.577 293.800 C 187.437 293.360,188.338 292.820,188.578 292.600 C 188.818 292.380,189.908 291.750,191.000 291.200 C 192.092 290.650,193.208 290.020,193.479 289.800 C 193.750 289.580,194.233 289.182,194.552 288.916 C 194.871 288.650,195.597 288.316,196.166 288.173 C 196.735 288.030,197.200 287.765,197.200 287.584 C 197.200 287.402,197.605 287.128,198.100 286.973 C 198.595 286.819,199.090 286.581,199.200 286.446 C 199.525 286.046,200.919 285.206,202.100 284.698 C 202.705 284.438,203.200 284.084,203.200 283.912 C 203.200 283.741,203.457 283.600,203.771 283.600 C 204.086 283.600,204.581 283.373,204.871 283.095 C 205.162 282.818,205.926 282.323,206.569 281.995 C 208.838 280.840,209.200 280.607,209.200 280.305 C 209.200 280.137,209.457 280.000,209.771 280.000 C 210.086 280.000,210.583 279.775,210.878 279.500 C 211.172 279.225,212.116 278.640,212.977 278.200 C 213.837 277.760,214.738 277.220,214.978 277.000 C 215.218 276.780,216.308 276.150,217.400 275.600 C 218.492 275.050,219.608 274.420,219.879 274.200 C 220.150 273.980,220.617 273.597,220.917 273.349 C 221.216 273.101,221.889 272.762,222.412 272.596 C 222.935 272.430,223.609 272.048,223.910 271.747 C 224.211 271.446,224.714 271.200,225.029 271.200 C 225.343 271.200,225.600 271.020,225.600 270.800 C 225.600 270.171,226.689 270.333,226.945 271.000 C 227.366 272.099,228.856 271.624,230.706 269.800 C 231.710 268.810,232.657 268.000,232.810 268.000 C 232.963 268.000,233.737 267.415,234.530 266.700 C 235.323 265.985,236.700 264.770,237.590 264.000 C 239.733 262.147,239.808 261.750,238.657 258.324 C 238.117 256.716,237.286 254.050,236.809 252.400 C 236.333 250.750,235.789 249.040,235.600 248.600 C 235.411 248.160,234.868 246.450,234.393 244.800 C 233.918 243.150,233.248 241.027,232.903 240.081 C 232.147 238.005,231.929 238.233,237.400 235.387 C 247.026 230.380,248.101 229.784,248.269 229.354 C 248.419 228.972,231.404 211.804,190.645 171.213 L 181.219 161.825 178.909 162.481 C 177.639 162.841,174.350 163.936,171.600 164.914 C 168.850 165.891,166.330 166.787,166.000 166.905 C 165.670 167.022,164.230 167.514,162.800 167.998 C 161.370 168.482,159.840 169.023,159.400 169.200 C 158.960 169.377,157.430 169.917,156.000 170.400 C 154.570 170.883,153.040 171.423,152.600 171.600 C 152.160 171.777,150.630 172.317,149.200 172.800 C 147.770 173.283,146.240 173.828,145.800 174.011 C 144.301 174.635,141.947 175.280,141.779 175.113 C 141.687 175.021,141.420 170.008,141.185 163.973 C 140.623 149.544,140.726 149.875,137.679 152.700 M174.210 218.276 C 200.983 245.055,203.612 247.799,202.940 248.262 C 202.533 248.543,202.020 248.915,201.800 249.089 C 201.580 249.263,200.950 249.626,200.400 249.895 C 199.062 250.549,196.560 251.996,194.600 253.250 C 191.913 254.970,189.456 256.391,188.300 256.896 C 187.695 257.159,187.200 257.516,187.200 257.688 C 187.200 257.859,186.943 258.000,186.629 258.000 C 186.314 258.000,185.814 258.225,185.516 258.500 C 184.774 259.186,182.749 260.402,181.900 260.671 C 181.515 260.793,181.200 261.052,181.200 261.247 C 181.200 261.441,180.943 261.600,180.629 261.600 C 180.314 261.600,179.817 261.825,179.522 262.100 C 179.228 262.375,178.284 262.960,177.423 263.400 C 176.563 263.840,175.666 264.382,175.429 264.605 C 175.193 264.827,174.550 265.229,174.000 265.496 C 172.645 266.157,170.146 267.604,168.161 268.880 C 167.259 269.459,165.909 270.269,165.161 270.680 C 164.412 271.090,163.080 271.884,162.200 272.442 C 161.320 273.001,160.330 273.582,160.000 273.732 C 159.670 273.882,158.680 274.462,157.800 275.020 C 156.920 275.578,155.885 276.137,155.500 276.264 C 155.115 276.390,154.800 276.652,154.800 276.847 C 154.800 277.041,154.543 277.200,154.229 277.200 C 153.914 277.200,153.414 277.425,153.116 277.700 C 152.374 278.386,150.349 279.602,149.500 279.871 C 149.115 279.993,148.800 280.252,148.800 280.447 C 148.800 280.641,148.602 280.800,148.360 280.800 C 147.961 280.800,143.276 283.500,142.800 284.005 C 142.690 284.121,142.150 284.434,141.600 284.700 C 140.288 285.334,137.794 286.775,135.800 288.050 C 134.920 288.612,133.300 289.572,132.200 290.183 C 131.100 290.793,129.750 291.602,129.200 291.981 C 128.650 292.360,127.930 292.788,127.600 292.932 C 126.957 293.214,126.364 293.577,123.735 295.300 C 122.811 295.905,121.863 296.400,121.628 296.400 C 121.393 296.400,121.200 296.580,121.200 296.800 C 121.200 297.020,120.943 297.200,120.629 297.200 C 120.314 297.200,119.819 297.427,119.529 297.705 C 119.238 297.982,118.550 298.431,118.000 298.702 C 116.763 299.311,115.466 300.119,115.200 300.446 C 115.090 300.581,114.595 300.819,114.100 300.973 C 113.605 301.128,113.200 301.402,113.200 301.584 C 113.200 301.765,112.735 302.030,112.166 302.173 C 111.597 302.316,110.871 302.650,110.552 302.916 C 110.233 303.182,109.750 303.580,109.479 303.800 C 109.208 304.020,108.089 304.650,106.993 305.200 C 105.897 305.750,104.940 306.335,104.867 306.500 C 104.793 306.665,104.473 306.800,104.154 306.800 C 103.836 306.800,103.476 307.059,103.354 307.376 C 103.233 307.692,102.608 308.066,101.967 308.207 C 101.325 308.348,100.800 308.626,100.800 308.824 C 100.800 309.022,100.350 309.298,99.800 309.436 C 99.250 309.574,98.800 309.847,98.800 310.043 C 98.800 310.240,98.552 310.400,98.249 310.400 C 97.946 310.400,97.470 310.675,97.191 311.010 C 96.743 311.550,96.610 311.525,96.042 310.791 C 95.689 310.335,95.085 309.583,94.700 309.120 C 94.315 308.657,94.000 308.118,94.000 307.922 C 94.000 307.726,93.817 307.349,93.593 307.083 C 92.029 305.229,91.600 304.635,91.600 304.322 C 91.600 304.126,91.417 303.749,91.193 303.483 C 89.629 301.629,89.200 301.035,89.200 300.722 C 89.200 300.526,89.017 300.149,88.793 299.883 C 87.229 298.029,86.800 297.435,86.800 297.122 C 86.800 296.926,86.617 296.549,86.393 296.283 C 84.829 294.429,84.400 293.835,84.400 293.522 C 84.400 293.326,84.217 292.949,83.993 292.683 C 82.429 290.829,82.000 290.235,82.000 289.922 C 82.000 289.726,81.817 289.349,81.593 289.083 C 80.029 287.229,79.600 286.635,79.600 286.322 C 79.600 286.126,79.417 285.749,79.193 285.483 C 77.629 283.629,77.200 283.035,77.200 282.722 C 77.200 282.526,77.017 282.149,76.793 281.883 C 75.229 280.029,74.800 279.435,74.800 279.122 C 74.800 278.926,74.617 278.549,74.393 278.283 C 72.775 276.364,72.400 275.817,72.400 275.372 C 72.400 275.094,72.265 274.807,72.100 274.733 C 71.662 274.539,70.000 272.098,70.000 271.650 C 70.000 271.439,69.865 271.207,69.700 271.133 C 69.262 270.939,67.600 268.498,67.600 268.050 C 67.600 267.839,67.465 267.607,67.300 267.533 C 66.862 267.339,65.200 264.898,65.200 264.450 C 65.200 264.239,65.065 264.007,64.900 263.933 C 64.462 263.739,62.800 261.298,62.800 260.850 C 62.800 260.639,62.665 260.407,62.500 260.333 C 62.335 260.260,61.813 259.647,61.341 258.971 L 60.481 257.742 62.084 256.371 C 62.965 255.617,63.943 254.852,64.258 254.672 C 64.573 254.491,65.356 253.861,65.998 253.272 C 67.671 251.736,69.725 250.001,70.254 249.678 C 70.818 249.333,73.602 247.029,75.542 245.302 C 76.344 244.588,77.110 244.003,77.244 244.002 C 77.378 244.001,78.139 243.415,78.933 242.700 C 81.130 240.725,82.949 239.186,83.454 238.878 C 84.018 238.533,86.802 236.229,88.742 234.502 C 89.544 233.788,90.310 233.203,90.444 233.202 C 90.578 233.201,91.339 232.615,92.133 231.900 C 94.330 229.925,96.149 228.386,96.654 228.078 C 97.414 227.613,100.436 225.078,101.872 223.700 C 102.617 222.985,103.375 222.400,103.557 222.400 C 103.739 222.400,104.536 221.815,105.329 221.100 C 106.121 220.385,107.002 219.617,107.285 219.394 C 110.906 216.540,113.455 214.439,115.160 212.902 C 115.952 212.188,116.710 211.603,116.844 211.602 C 116.978 211.601,117.736 211.015,118.529 210.300 C 119.321 209.585,120.202 208.817,120.485 208.594 C 122.442 207.052,125.033 204.967,125.200 204.800 C 125.367 204.633,127.958 202.548,129.915 201.006 C 130.198 200.783,131.053 200.060,131.814 199.400 C 133.360 198.059,133.409 198.019,136.200 195.794 C 137.300 194.917,138.290 194.110,138.400 194.000 C 138.573 193.827,141.581 191.408,143.119 190.206 C 143.405 189.983,143.855 189.582,144.119 189.315 C 144.384 189.049,144.631 188.824,144.669 188.815 C 144.708 188.807,158.001 202.064,174.210 218.276 " stroke="none" fill="#b40c0c" fill-rule="evenodd"></path><path id="path2" d="M141.324 162.200 C 141.326 163.520,141.401 164.012,141.490 163.293 C 141.579 162.574,141.577 161.494,141.486 160.893 C 141.395 160.292,141.322 160.880,141.324 162.200 M141.746 170.600 C 141.747 172.800,141.814 173.649,141.895 172.487 C 141.976 171.324,141.976 169.524,141.893 168.487 C 141.811 167.449,141.745 168.400,141.746 170.600 " stroke="none" fill="#546c34" fill-rule="evenodd"></path><path id="path3" d="M140.948 156.400 C 140.948 158.710,141.014 159.655,141.095 158.500 C 141.176 157.345,141.176 155.455,141.095 154.300 C 141.014 153.145,140.948 154.090,140.948 156.400 M141.328 168.000 C 141.328 169.430,141.401 170.015,141.489 169.300 C 141.578 168.585,141.578 167.415,141.489 166.700 C 141.401 165.985,141.328 166.570,141.328 168.000 " stroke="none" fill="#6e4e29" fill-rule="evenodd"></path><path id="path4" d="" stroke="none" fill="#5c6434" fill-rule="evenodd"></path></g></svg>